<mxfile host="Electron" modified="2024-02-15T06:52:52.659Z" agent="Mozilla/5.0 (Windows NT 10.0; Win64; x64) AppleWebKit/537.36 (KHTML, like Gecko) draw.io/21.2.8 Chrome/112.0.5615.165 Electron/24.2.0 Safari/537.36" etag="WsghmDrVODvSZR0SKKSJ" version="21.2.8" type="device">
  <diagram name="Page-1" id="2XWkQP5S-hDbL94sL5Vg">
    <mxGraphModel dx="2058" dy="1180" grid="1" gridSize="10" guides="1" tooltips="1" connect="1" arrows="1" fold="1" page="1" pageScale="1" pageWidth="3300" pageHeight="4681" background="#999999" math="0" shadow="0">
      <root>
        <mxCell id="0" />
        <mxCell id="1" parent="0" />
        <mxCell id="APLwThIm-aDqV8bCMrbt-1" value="Anchors" style="rounded=0;whiteSpace=wrap;html=1;fontSize=25;fillColor=#dae8fc;strokeColor=#6c8ebf;" parent="1" vertex="1">
          <mxGeometry x="1298" y="140" width="650" height="60" as="geometry" />
        </mxCell>
        <mxCell id="G5JWLoQhlFUKyvOs8WUd-1" value="" style="shape=image;verticalLabelPosition=bottom;labelBackgroundColor=default;verticalAlign=top;aspect=fixed;imageAspect=0;image=data:image/png,iVBORw0KGgoAAAANSUhEUgAAAocAAAIFCAYAAACgbFcxAAAAAXNSR0IArs4c6QAAAARnQU1BAACxjwv8YQUAAAAJcEhZcwAADsMAAA7DAcdvqGQAACuHSURBVHhe7d0HoGR1fS/w39y7e7exBXbZXaRspyMiYBcBJUbBnmqMsTwxFowlBhGNWJ7mRX2aqFijsSaamGh8GgtFLAQlSCwIsoXeFray7e4t8/7/Kf+9rLvL7l1m5pbP597fnTPnzNyZOXPmnO/8T6sce9xx1Wo1dkhXdlxNXfXfhp2vjxT78YyGedeRNw72pP3jZ3+MrnHbCcYQ40mlccnuDHsMtf+Oo0plv17myBtH9ddTf147Ooder3dnlWOOPa4saXakxPrljqtDA2P2wGsPsIdBD2Y/7jp8D0jGe68jz7UjhvlKx8kIGj/TAbA3dixe22jYD9qRZ9t2nRk9w7tz6x5yx8BaVyMIDg2MWXNYPRzutrWwNmiIna/vyoPeYPeGedf9eMT9MF5e53gxisbuKJsQTLetsWN2PsZ15IWOm7HbdsMes/v1lrT//RyJr7M2dGjrYL1Ho3/5U/tbOeaYY4fkvSHhL3VMmDgxpk2bGj0Te6JnUk90d3e3dE4/NKKyC6Nq9LT/yZp6gE6rL17brTOPOiyj6Kl2QiOqtUb61wMDA9Hb2xvbt/fFli1bor+vL/WvP+bQVsTK0Skc1rpyNGsuXVPH9OnTY+asmbFm/abYum17bEv/qK+vv3GDPWnhCwPTF4wjvvIN30M47nY1232wf9+8z5Dmp9Fnp+feqcXPQzgKJ06YEJMnTYwpk3pizkEzY/36DXH/xo3ptdVfXGlNrIfDHcEwb3c4Z86c1Kcr7rpvXUqXexMImzo15hg/TGMwPozmUDESPITjb1ez3b359/l+wuH+a9Eo7Jk4IQ45+KCY0F2J1avvbfRNLzO9zq78qPX3Ll9WY8b06amrK265817BkA7I09GuCgA6aDTn3F3Y3tefst7q6B+ory2u75Rcz4RdO4Jhvbkxr0rOLYYwPPsT7PZ02335P8Dot6/zDx6oOf5aMA73JiSN1beunp92VCu14zGSu+5dG7NmzqxlwGYm7KpdNB582gHTatsY7luLITTtbm6wN3OJh+o2wNjic7//hjkOm3drhpRmsUMrxkebx3NuQbxv3YaYOm1q7Xqj5bDxDNJl3is573yye3lK2dVE5sPLg00Dexpu+gH2xDyi7ZqjfCSP+pHy3NoY5Fpla+/2WgZsthbWWg7zlXw1H64m75X84HxQGY5dTTemJWBvmFd0xHCDT75fq0NTq/9/J3ToNW3r7YtJkybVHz5lwsqRRx3VaDysxsIFC+O6FbflK7tRiRnTp8XECfVMuS/6+gdi4/1bGtcYe8y4gXYYi4mgHTo93kbj+7YPz/mhWgR2cDQdt3RB3HzLzamrEpVlRx5Veyo5IS5cuCB+veL2fHUX6q/8A+99dyxZurTWvTuVxvFy7rj7vmYLZWzeuCZe/8YLoquru96DMUY4BNplNAaNTuv0OBuN79k+POcxEA6PXXpE3HzzLc1D2aTn0kxwNXt+hbNmzojjjl62xzr2qKW1OutJj4nfOb1eB8+ZvdPjAMBw+DI6+nTuPXvn2y6MW5f/Ku5Ydf0uKw/Ltxlprrzs2/G4Rz+qce235WE/vvQ/G9ceKvWj19RaDpuhrd5yeEet+4Hxdceb+rl/uDgOO2xJfO2Hy6PSVa1Xd67BePqJS2P+vJmxadPm2m2nTZsWX/3xTbXuRdO3xAte9LLo7p5Qu74nv7rmx3H1NdfGi899daPP8OT/89I/f0385OprGn1oHTNroNM0QOzZSBg/7X8OOfyd9fRnx1333NPo80AHHXhg/OCSb8URy45v9Gnah+f6UC0ChzxkDn8f/uB749WvfWNc+ZOfNvrW7WnYcNVbDuurlfew8eCuX2nuW6l0x00bNsXN998ft2zZGLf1bojb+9ZHX99gSpypGj9N3T0Dja4H9+hTT471GzbEqSef1OjDyCcYAiOBedHI1/73qLu7uxYMN268f5d18y231m6zX3LkeYhzbw59OfzlEDi0BbEVwXBnD7JnSS0K1jsbBgbrr/7g2ZOi0tMfG/o3xr3b1sQ9W+unXqnsNHImH7gtps7Z+x1R/vxlL47v/+DHtYD40he9oNEXAPaGgLh7xk3LtTggtiMYZvu823HzdV9/z+1x0/q7Yn3/utga98f2yqZa/2pj2qs0JsJpszbF1APqw/ZGbjH8xje/XQuIz37G0xt9oxYUf3TZt+IbX/1S3LHqulrlVsamof1zd9Mzzv7d0v8zn/hwo2/Euy66sPTP1Qyi+X/m1dHN/5cN/d9D/8fYkN+nnQtgpMlLn71d8pqPjWxj/P1pYUBsRzDM9jkcNt/SrSkMTpzSFxMn98WESdtjYqqaNFKawTA7+uDDY+msxY1re5YDWm4xzNsIvuWi/x2PPOnExpC6RQsXxM9/eV0cuvi4+O4ll8db3vSGWv9mGMz9cz3jec+vXc9OP+3xtX7P/cMXxu885Yxav/w4L37h88vt87B3/PUFJWweeOCs8jj5tvl687b7ux3kyLK7D6gZKzDS5PnSvsybmrffuca7/RsHd6z69V4Vo1sKh42Im3dK2Ye0WwuFqSZOyjUkHKbpbui/WXrgklrtjdxSmFsMm3527c9rLXxNN918Sy00Zj+68qpaaMtyaHzX37y/1r2zN5z/1tplDpzr1q2vBcAnPO4xtXDZlIflx8qtjFm+XfNx/uEfv1D7/0NbIxnKzBZgvDh08bF7VQzDbjLY0FXJQ1cxP+Ty49eeQ+PcysNRD4b1UNiTL3vq4bC+53PzFVZje19fbN26rXF9z3JLYW7Ra67Czddzy1+75PC5K7nFMLckjq3Vyg8W6vJwwQ8Ya8zXGGGGxqad7LyN4c7bILbKvofD9Lnq7d0aj56zJE45cFk8csaR8Yhpx8TDpxxX61+/Sf3Dl3Pi4OBgDKR6MLmFMIez5urbZuVWu6HbFu5KrUWxsYp5b+RWx+Yq5iz//xxEcyvh7uSWxL9+x3ti2dK9W0U+djRD4u4KYKRoLmX3sLRleEbxLH9gYKB2uJrdmT9/Xu02I83udj5pR0Dc53CYc94xRx0eLz/jKfHyJ/1OvOyJT4v/9cRnxksf/6w4+qjDYurUaTF37sFx0OyDYmLPxFo47Op68CkqtxAOXaXclFf35j2Y9yRvY5hXMTdbHB9sFXAOgZ/53I6dTP7ty5+rbXe4K3mbw+bt8naJzdXUo5tQB4xFzQTTLIj47Bf+qXYcw10dADvXT394ae02HbGb7zD5THPvfffbfysYNjUD4vve845Gn4dWZdmRRzbWBOfT5y2MX69sHgR711573ivipEc8vHHtt3V1ddUqp/ChZ0T5xc9/Ge/9wN9H114cBJtWM9MExrPx3qo4El7/aHgPHoLn+GCL2z08RA6IQ3NUqx27pHEQ7PSc9zkc5htXB1Pwa1zfW7XvcV3d5bzLdJL3ABiv2rewHblGyjgY6e/FQ/T89rTIHUGjYGg43PdD2aRwl1v/8mnw9qXyfQTDTsjjfOcC4IHMH2mRERAAa1N3+rOnGmrYeyszGuz0bgPwIMw3acrTwtAaxfbx6QuHwAg1BmbIjEC7mq7G23Q2Ul7vOBrvufWwQy2IwxnLwiHQAXl21axdGUcLDTpsb6c10yQPgTYHxNpUO4xJVzgcs8zIGInydLnztPlg06ppmVbY1bS4O83bmRZ5CLQhINam7n2ZxHfS1dxTuUOtnQDJ0DlYKxfArfzfACPEMGd1tSyY/mg5HJMsABkpdp4W9/Q1tHnb2jfWeucDuvfXcD4XPkvj0+6m24dqWoSRTTgEWmR3wWpPC9ih92nVgnhvA99wguFw7sPItPN7KRgyfgiHY46FEyPBeJwOffbGnrH8nppe2b3K0mVHVpvbHC5auDC+973v1ocAADAunHXW78RNN99c+9qg5RAAgEI4BACgEA4BACiEQwAACuEQAIBCOAQAoBAOAQAoUjhsnlc5/3UEeACA8aaWBhvHvdZyCABAIRwCAFAIhwAAFMIhAACFcAgAQCEcAgBQCIcAABTCIQAAhXAIAEAhHAIAUHQ1z5hXzWdNqXcCADDONHOglkMAAArhEACAQjgEAKAQDgEAKIRDAAAK4RAAgEI4BACgEA4BACiEQwAACuEQAICiq3aqlHzuvHzSFOfPAwAYf+qBsJYJtRwCAFAIhwAAFMIhAACFcAgAQCEcAgBQCIcAABTCIQAAhXAIAEAhHAIAUAiHAAAUwiEAAEUtHDZPpwcAwDiVT62cLrQcAgBQCIcAABTCIQAAhXAIAEAhHAIAUAiHAAAUwiEAAIVwCABAIRwCAFAIhwAAFCkc5hOlOHceAMB4Vk+DVS2HAADsIBwCAFAIhwAAFMIhAACFcAgAQCEcAgBQCIcAABTCIQAAhXAIAEAhHAIAUAiHAAAUXdXGqZWrjR8AAMaXegasBUIthwAA7CAcAgBQCIcAABTCIQAAhXAIAEAhHAIAUAiHAAAUwiEAAIVwCABAIRwCAFDUwmHtpHnOnAcAMG7lUyrnOKjlEACAQjgEAKAQDgEAKIRDAAAK4RAAgEI4BACgEA4BACiEQwAACuEQAIBCOAQAoBAOAQAoUjjMZ9GrOr8yAMB4VTJgVcshAAA7VBYvWVJNIv3G4kWL4tJLL2kMghGs0rhkRPjkNSc3uhgJ3vXDaxpdjAS3/EWjA0awJz/5KbHqppuikpavWg4BACiEQwAACuEQAIBCOAQAoBAOAQAohEMAAArhEACAQjgEAKDocso8AACatBwCAFAIhwAAFMIhAACFcAgAQCEcAgBQCIcAABTCIQAAhXAIAEAhHAIAUAiHAAAUwiEAAEVX7dTK+U+19idfAwBgXEkZMGfB9KvlEACAQjgEAKAQDgEAKIRDAAAK4RAAgEI4BACgEA4BACiEQwAACuEQAIBCOAQAoEjhsOqkeQAA1DKhlkMAAArhEACAQjgEAKAQDgEAKIRDAAAK4RAAgEI4BACgEA4BACiEQ+iYamyK/4ofxH3R3+hD+/Vv7o91d/TGvXf1xeZtTgnQUdW+qG69J/rXrIj+DWujOtjoD7SVcAgdsTauiT+NU+PMOC+Wx/ZGX9pkcCDu+M4d8ffP+0W85vRfxPnPvC4uPOeX8fon/SLect4d8d83DzpzVNsMxuDdX4+N//SEuPNN0+K2N8+PO9+5LO5825y4/c3Hxn3f+3b09zVuCrRFV30OmE+h5zR60Hpb47b4ULwkjozHxBfjhhhIP7TVQG9c9dYb4t1vvid+detgTF10QJzw5FlxwolTYmbPQKy+8p745IuWxzd+7p1pj7XRe+mrY/1PfxIDExdEz7JnxdTjz4pJ8w6O6L0+tnzz7Lj7E++P7b5BQUvlDFjPgVUth9Aet8Ql8ep4WhwWS+I18ZkYjHkxtTGMthocjLV3DMQBp8yLP/+XE+Jvv3JknPe3i+O8Tx8T7/7qsjj7pO6o3r85vve+1bFqS+M+tFRl7nNj1st+E4e9c3nMf+XXYs7/+m7Mu+C2eNjLz4+eSYMxuPyiWHfFzzRgQJsIh9AWP0uB8OL4dqyLCSkivjX+Nd4VB/sAdsjccxbG+R85NB65sPsB78GEudPj6efPj2XTInqXr49rl9vorfXmxOSz/i5mHLs4KpVGr5qe6D76zXHgY46JSmyK7ddfEf3eDmgLyyZoi544PF4Ub08h8db4VrwjTop5jSG02cQpccrvzYiDJjSu72Tiw6bGYbNTSunrj/tWW7XcWdOj+2GLUjhMtq+PqrcD2kI4hLY4O/4mPh1/HY+IOY0+jFDdXTGpJ12mRNIz6QFNWbRdf1S3bKytTq7MXBLduwn0wENLOAQYorqlL9ZuSHFk4sSYM6+70ZeO6Lsxtv3mhqhW5sWkE0+Lblkd2kI4BCiqcc8l98av7o3oWTIzjj9CGumMalQ3/Dg2feUPY/0NG2PCCW+LWY9Y2BgGtJpwCNCwfcW98eVP3h9buibGMb8/OxZMaQygxbZH31Xnxr0ff2qs/uCJcedFc+P2tz8p1t04Laae8/WY+2eviIl5VT/QFsIhQNK7ak18/q/ujOvWdsWhf7AgXviMHjPINqre/4vYdsN3Y9vNv4j+9fdFNSZH14x5UaluiMFee6JAO5n3AeNcNdb+4PZ434tviZ/cVomFz18Ur37tjJhu7thGPTHxtG/Ew95xZxz61utj/msvjYOf9/Lo2f7D2PTNP4p7/s9TY8OKNY3bAq1m9geMX/19cf1Hl8f/fsPquHVgcjz6wiPjDW+YGbMnNobTNpVJB0f39EOie/bR0bPwzJjy+PfHwef/Og5+4gkRGy6NjV+5MLZuchhsaAfhEBifNm2O77zuhvj7T22KvkWz44X/eFS85NlTYlJjMCNA1yEx5envi2lzJkR19ddj84p7GgOAVuqqfQ9rfhnzpQwYD7ZujUvetCr+/cr+mHXmEXH+ZxfE45d21w+2zMgy+ZiYNG9m6lgX/XfeZjEFrdIMhOlXyyEwzgzEDR+5Kf7tv/rjwN9dEG9495w41F7JI1d1Swxu25460uKqZ3K9H9BSwiEwrgzeti6+861tMTh3VjznNQfGHNsXjmjVNVfEttWbI7oXxqRFC7XuQhsIh8C4svFXG+PWDRE9hx8QC+ZUoprXouyuGvehVaoxcM3rY+2PfhgDfTuP7WpU7/t6bPj8X8XW+weja8kr4oCF0xvDgFaqLFy0OH0C02/6WbxocVx22aWNQTCCjfrmg3Xxn3FSnBN3xjFxRfw0HhtTG0NGo09ec3Kja6Srxu2fvjH+5iObo29CV0x6sHMnT5kWz/nkkjhjlJ0p5V0/vKbRNdKlcHj1s+KuL34jBicviJ5Fj4+euYdEpe/O6L/rmui99cYYHKhEZf7LYvaffySmzhqdJ1e+5S8aHTCCnXnmk2PVTavS4rWi5RA6pTumx7T0c4CPYRtVY9uWanRPrER3VzX6+wb3WLk1S+thK6XF0OF/GtMffmJ09d8W26//Umy64v1x/5X/FFtvWhHVycfHlLO+EvNf97FRGwxhNNJyyOg0JjY8Gkg/WXf6Gd1GT8thMljNv3uvK32LHmXT2+hpORxi+9oY2LQ6BjbcFYMxI7pnLogJs+ZEZQx8d9JyyGig5RBGhBwKR38wHHVy2OvehxoTX0RGgZ6Dovugo6Nn0RkxedHJMfGgsREMYTTy0QMAoBAOAQAohEMAAIpaOKxtm22XPACAcS3HQS2HAAAUwiEAAIVwCABAIRwCAFAIhwAAFMIhAACFcAgAQCEcAgBQCIcAABTCIQAAhXAIAEBRwmH91MpOsAwAMB5VGzFQyyEAAIVwCABAIRwCAFAIhwAAFMIhAACFcAgAQCEcAgBQCIcAABTCIQAAhXAIAEDRVT9XitPmAQCMX80sWNVyCADADsIhAACFcAgAQCEcAgBQCIcAABTCIQAAhXAIAEAhHAIAUAiHAAAUwiEAAEVl4cJF1Wqkn2rEksWL4rLLLmsMghGsUml0MBJULmp0MDJc5JSoI0ntLLUwwp155pmxctVNtcVrveWwNuGaegEAxqN6Ckx/06/VygAAFMIhAACFcAgAQCEcAgBQCIcAABTCIQAAhXAIAEAhHAIAUAiHAAAUwiEAAEVXOWle/YwpAACMR40gqOUQAIBCOAQAoBAOAQAohEMAAArhEACAQjgEAKAQDgEAKIRDAAAK4RAAgEI4BACgEA4BAChq4dA5lQEAyJlQyyEAAIVwCABAIRwCAFAIhwAAFMIhAACFcAgAQCEcAgBQCIcAABTCIQAAhXAIAECRwmE+UUrVKfQAAMaxZhbUcggAQCEcAgBQCIcAABTCIQAAhXAIAEAhHAIwAm1KdVOqW1Pdn3sAbSIcQgfdk+qkVHNSvT33oD36Un0m1d/uofLw3lS02bdSPTrVrFSLUy1odJ+Sak0qoNWEQ+igj6X6n1R5kbct96A9BlPlxqgtqbbupranqqSiTfpTvTrVM1JdnWpRquelOrvRvTqVI/JCOwiH0CE3p8rhkA7IOSS3Hh6QKueRN++iXpqqJxVt8rZUF6ean+o7qZan+tdU/y/VilSXp8pvGNBqwiF0QG7/eG+qdakel3vQXjkc5pqYalrjcueakIo2+UmqD6bKG1h8M9VZqXa2JNXkeifQUkPCYVpcabGHtrgk1adTPTVVXuTRZnmV8UCqHAK7cw86J6/jf3eqvI7/jakekQrojBwEq1oOod3WpnptqryC7P+kyg1XtFkzHE5KZS7YYbek+nGquan+OPcAOsxsEdoofyd7Z6rrU/1lqqNT+RB2QA6HucFKOBwBcjDMX5ny3sgPyz2ADjNbhDb6aqq8yf2TUr0m96AzmruG59bD/06VN3n7Zap7U9m8ps3yG5BH+iNT5cSed0I5J9WJqR6V6vxU+ViHQLsIh9AmN6TKO8bOSPWhVFNS0SE5HOY8ko+xnPd/+M9UObl/JNUHUuWgSBvkMPibemdtcfScVL+fKr8pv0qVD2mTDzqZ29g/lwpoB+EQ2iAfUu/cVPl4hu9LdXwqOign9CenyofQy4fVOz3VcanyauaNqf4t1Q9S0WK56bZ59pMrUl2aKm94kVsK16f6r1SPTZUPPPmqxnWg1YRDaLG8+Ht9qh+myofO+9NUdFjeRfyJqU5NdXKqHA5zg1XeUyiHxNyqmDeFuysVLZRbDvNeytmPUn021VtSHZ5qeqrHpMrHPMyrnPPp9N6fynp/aDXhEFosrxT7h1SnNbp96EawvK4/b+52cKp86rxfp6KF8ilomscSyp+QvFp5ZzkkvilVvu1PUzmFHrSa5RS00DdSXZRqZqp8TMOvpPrUkPpkqlWpspWpcr8vpMor0eiQHBDz6XwzO6i0WF4ENQ/mlI9vuLsjj+fT5+XT1WxIlVc3A60kHEILXZcqHzUlL84uTPWynSpvh/jtVNm/pMr98u2aK9rokAMbl/kUe7RQDoN5Z5NsT2cXz62H+YjlQDsIh9BCefO11+2h8iZu+ehu2RNS5evPT+WUvh12T+MyH6k8r82khfLharJ8LuW8he6u3JEqt6fnPYlm5R5ACwmH0EJ5R9j/u4fKR03J+0Rkj0+Vr78nVW4noUPyJm15XX8OhUtzD1or7zY+O1XeISXXzvJ6/S+lysExB8l8W6CVumxPAyODBqo26U+VD3qdD1mzsxwM/z1V3jH2kFRHpqLF8gaef5Yqr1Z+ZarmcQ+zZjDMlTcGzfv9+6RASzTzYLrUcgiMLzlb/CLV36X6eKqvpfqPVHlvoHz6mttT5TWXz06Vj3tIG7w1VT6eYd49PB+25qxUOSjm4wzlgz/lLXffniq3rwOtJhxCh+V9NSencsaUNpqbKs/98nEM/yfVz1LlUJiPqpLXXOY9hfJtaJOcxvNpavKRQPPq40tSfTTVtakWp8qnr3ljKqAdKgsWLKxWI/2kv0sWL4nLL7+sMQhGsMrYWbWUDwOcF4c5l4zWb2uVfLye0SbviZxPzpF3Dc9vQN75JO+lPBa+Ml80mrcXym/KilR53f4RjRrdn/e0eIUR74wzzoyVq1amT1tFyyF0Wv4Q5oN0+DC2WR7pB6U6LFXe7C3v5+BNGAHy7lgnpcqnsMlvjG0Mod3MCgEAKIRDAAAK4RAAgEI4BACgEA4BACiEQwAAiq7a4ZfyH8dhAgAYvxpZUMshAACFcAgAQCEcAgBQCIcAABTCIQAAhXAIAEAhHAIAUAiHAAAUwiEAAIVwCABAIRwCAFDUwqHTKgMAkDOhlkMAAArhEACAQjgEAKAQDgEAKIRDAAAK4RAAgEI4BACgEA4BACiEQwAACuEQAIAihUMnzwMAGN925EEthwAAFMIhAACFcAgAQCEcAgBQCIcAABTCIQAAhXAIAEBROWLBgmo1H9om/VmyZElcfvll9SEwgp35ylsbXYwEl128oNHFiHDF1Y0ORoQnndLogJHrjDPOiJUrV6VkWNFyCADADsIhAACFcAgAQLFTOHSeZQCA8auq5RAAgB2EQwAACuEQAIBCOAQAoBAOAQAohEMAAArhEACAQjgEAKAQDgEAKIRDAACKrvoZ86q1CyfPAwAYf+o5sJ4EtRwCAFAIhwAAFMIhAACFcAgAQCEcAgBQCIcAABTCIQAAhXAIAEAhHAIAUAiHAAAUwiEAAMWQcOjMygAA41qKg1oOAQAohEMAAArhEACAQjgEAKAQDgEAKIRDAAAK4RAAgEI4BACgEA4BACiEQwAAino4rJ05r1LrBABgnEpxUMshAACFcAgAQCEcAuPbYMS6OyNuXB5xx9raVTppsDfWrbkrVt55d9yzua++1RPQVpUjjlhQTWofwCVLFsf3L7+8PgRGsDNfeWuja6RLC7hL/jBW3LZh7xZylbkx94x/jiMXHNToMTpcdvGCRtco0hdx5ccjXv32iP+5r7Hpdfq6PO/kiHd+NOIl6bK7dsNR6IqrGx2jx+DmVfEvn/9AvOX/XRMrNzVCYdfkeNhRT42LXv/aeOmyA0Zva8aTTml0wMh1+hlnxMqVK6NSqWg5hNaqpNTRG/29Gx+k1kfftnXRt70S3T2TGvelZbZHfOr30zL7vIhr10csPDXiuc+JOPWIiPtSrjr3MRF//PmI/sbNaa3+uy+Jc1/5ovijf74qbuqfEUcd99g455FHx4Ip/XHX9V+Pc897ebzxmvVaEaFNtBwyKo2elsOUDQe3xeDgHhZrA2ti489fE7+65n+ie9mH4uSnnB2jLR6OtpbDn78/TUNvjFg3O+Jd/x7xV0+ImJAHpDT4g3dFPOvtERvnRnzo+xGvPKZ2l9FlNLUc9t0UH77gZfGa/94YBx3/wvjsW8+Ns+f11AZVt66MT7//jfHqS26LwcOeG1+/+IL43Rm1QaOLlkNGAS2H0EaVrsnRPWHKbqur7+q44/pro7/n1Dj8kWeNumA46myJ+JcvRKxNef0J50e8vhkMs9Rx2gURb3p8xODqiM+n4NjbGERrrLn2S/HBazdEzHh0vP2vXl6CYVaZsiRe+rq3xnlLJsX2278b7730thhoDANaRziEjtoUG375sVizpSumLH1FzD9ox4KRFknh8Nb70mV3xPEnRUyu990hpfNTH1Hf3vDumyO21vvSEpvjF1f9LG4ZqMS8k58dv3fExEb/IaadGK/+/UfF7PRZ+dmPfhI32WMIWk44hA6qbviPuPWG38TgpMfG4Sc+IXaxaOShNjXi8NnpciDi3hwSd+G+1fW9lg8+ImJKvRetUN0ct9+zMfrTlP+wBYfGrEbvB+qKgw45NOaktL7xtuviN5savYGWEQ6hY+6PDdd9JtZt644pi18ac2eVlZu0UgqHz35O7SIu/1TEr7bVezdt/WXEJy5NuWV6xPOeWWtIpGUGoq8/x/DB2Lp12253AJp80KExP70RgxtvjV+vtWIZWm1IOLQfGLRTddOlcfvyFTE48cQ45ITHaTVso1NfF3HhaRFrL4k45/ci/uPnEfeujrj2aykQnh1x6fqIp7wt4lUPb9yB1qhMi4fNmZYWRP1x3x13xbrdLIY23HZDrMzr9we2xf29wiG0mpZD6IitsemGT8faLRE9R/xZzJ+tfaqtZkRc8M2Iz7w0Yk26fNYjIubOi3jkcyL+c13Ey78Q8fU3RBzQuDmtMiNOevTDY34lhfOf/GO879qNjf5DbLsxPv3lH8TtOTgO9sXm7Q4wBK0mHEIn9F4dd914XQxUDo85x5xu1WW7bYv46lsj3vT5iE1pLnjg4SkYPjLiYTPTTHFTCo1/GfHXX6sdDpEWm/eo58crjp0a0bcqPnTRefGqb18fd2zeHn19W+KeVZfG+W9+fbzr3iPilDnpjerqiemTbH4BrSYcQttVo/f2L8d9G/qj66CzY/78lEhon4GIb7w+4oUfTMFwacTFV0Xce2vENddE3LEm4icXRyxeH/H+F0Sc/536jim00ORj4y8veFO88PBJMbjx13Hx37wwDnvGaXHA086IQ17ypvjbX/bEs845LebnTZ+6J6dwaLEFreZTBu02eEusuf5H0RvTYvqyZ8Z0Gxu21cYrIy78dMTWlMkv/HzEK04dcpq81HHKKyK++JaIGZsjPnFhxNXpktaafNjT4h8//oX41xc9NZ5w+OyYOWlSTJk2N0587B/Hxz/w8fj46QdFf281ug44JBbP1HIIrSYcQptVN1wS99y9PqLnxJi7aJkPYZtd+bmI63ojZj8h4vknNXru5KQXRJw2O2LLz1NQHH2nKR6VKlMXxvNe9K744ee/Heu/9f1Y9/VvxLXveX2ce/zB0XfPili1JWLKvGWxdFrjDkDLWC5BW/XH1tu+F5v6IrpnnxkHztAK0lb9ETeuqK8qPuS4iDmVeu+dVVIwPOHQ1JFvv9yq5barVPJZyRu2x4qf/yJuG5gYC48/IRZqaYeWEw6hnQZvjbU3X5cyx9Q4YMETY4pPYHul8T25cRKa1Skkbqh3/rb1Eb++s945aXLKKvVOOmHzdfHlH90UWyceHr/7+KNieqM30DoWTdBG1U1Xxpr77o+YsDQOOmyRD2C7pRF+8uPqZz2576qIS2+p997Zqm9HXLUmdUyLeMzDhcPO2RI/+/pH4xMremPOSX8Q5+a9moGWs2yCNupb/ePY1JvCxrRHxMyZDmDTCSf+ScTpcyIG74y44FUR37+rMaDh1m9FvOSCiHuqEfOeEvH84xsDaI3qplix6vbYuPO6+4G18eMvvzWe85lrY8O0E+I1L35aHGkrDGgL4RDaZlNsvvuG6EtdE2adGFMbqzdprwlLIz76kYijpkTc/s2IJ6frRz064rnPiXjUstR9TsQVqyOmHBPxsXS7BWVXZlrj/vjhP7wsjviD58cZF74tzvvo38Wr3v26OOUPnxmnffQHcVv34jj3Te+JC47RagjtIhxCu1TXxrbN26Kra0ZMmbMwNIJ0zoI/iLjqyoi/ODNiam/EjT+N+PevRVy9IqJ/esRZr0vDr4p4dt4phRarRPfkKdG1fkV8/8ffig9/+Qtx8Xd/FD/bMDmOfPSfxlc+9dn42BPn+rxAG1WOOGJBNYn8s2TJkvj+5Zc3BsHIdeYrb210jTLV/kgft/TJ645KZexsyXbZxQsaXaNP38aIm26OWLM54oCDIxYtTJejPYlcMdqOv1ON/q1r49a7V8cd67fGpFnz4oh582L+1DESCZ90SqMDRq7TzzgjVq5YWVs2aTmEdqpMiEpXqjEUDEe7iTMijnx4xGMfG3HC0jEQDEelSkyYMjsWLzomnnjSI+NRiw4dO8EQRiHhEACAQjgEAKAQDgEAKIRDAAAK4RAAgEI4BACgEA4BACiEQwAACuEQAICiK5/Jq6Z0AAAwXmk5BACgEA4BACiEQwAACuEQAIBCOAQAoBAOAQAohEMAAArhEACAQjgEAKAQDgEAKIRDAAAK4RAAgEI4BACgEA4BACiEQwAACuEQAIBCOAQAoBAOAQAohEMAAArhEACAQjgEAKAQDgEAKIRDAAAK4RAAgEI4BACgEA4BACiEQwAAisrhRyyoRjX/VmPJ0iXx/csvbwwCAGA8OP2MM2LlipVRqVS0HAIAsINwCABAIRwCAFAIhwAAFMIhAACFcAgAQCEcAgAQUalfCIcAABTCIQAAhXAIAEAhHAIAUAiHAAAUwiEAAIVwCABAIRwCAFAIhwAAFMIhAABFCofVRicAAONWIxJqOQQAoBAOAQAohEMAAArhEACAQjgEAKAQDgEAKIRDAAAK4RAAgEI4BACgEA4BAChSOKzUuxoXAACMX1oOAQAohEMAAArhEACAQjgEAKAQDgEAKIRDAAAK4RAAgEI4BACgEA4BACiEQwAACuEQAIBCOAQAIKJSvxAOAQAohEMAAArhEACAQjgEAKAQDgEAKIRDAAAK4RAAgEI4BACgEA4BACiEQwAACuEQAIBCOAQAoBAOAQAohEMAAArhEACAQjgEAKAQDgEAKIRDAAAK4RAAgEI4BACgEA4BACiEQwAACuEQAIBCOAQAoBAOAQAohEMAAArhEACAQjgEAKAQDgEAKIRDAAAK4RAAgEI4BACgEA4BACi6Kvlv7Q8AAOOdlkMAAArhEACAQjgEAKAQDgEAKIRDAACKIeGwYqdlAIDxLIXBLokQAGB8y3Gw2UzYFdXaZe1q/8BA3HvvvfUeAACMeTn79fcPNK6VlsN6Uuzd1hs3Ll9e6wYAYOzL2W9b77bGtUp9m8N6NEzhcHtvLL/xxsY1AADGupz9tvdur3XnTJjCYSMapotN92+KL37xS3H77bfX+wEAMGblzJez36ZNm0okrO+t3LjS19cXd999d3z4Ix+p9wAAYMzKmS9nv5wBa1Im7J514KyLSjpM8jrnNfetiZUrV8bRRx8dM2bMaAwBAGAsyC2G7373e+Kyyy+LNWvW1PpVKikPpqosWLiwWs17LKc/tZ/G3sszZ86I+fPnxwv+5E9i2bJlceSRR8bBBx9cHwgAwKiS90q+8cYbY/ny5fGFL36x1mK4ccPG+sCcC2t/auFwUQqHtXRYD4ZDQuLEiRNi+gHTo2dST0yeNDm6uxtHvmkEyF3b48A9GvY9h/+Q+6H9Dzq6XmZHnm3bjZNJLxkf72dn7FhzM6Z14GWOkzGbDPOVjpv3pP2Pmhvg2m8PD5oG5aH5cDW9vduid/v22jaGfX39tedaQmGju7Iwh8M0468FxPzbCIf13yH963/K5e7Uhg/XMO/aicfcH8N+vsN+rsN/kR0YPaPrPRltxsnL5EHkpQS7VVtQttt+POTw7zp6Xmcn3pPaKtZ224+H3OM4SoNqw4cEwGa/+qrkZr/G8B3hMN87X6aO2u8Du3/rcjdq92m3/XjIPb2WPerIyxwHz3V/dOAh90dHxhF0SG3BMx4M82Xu39jpyIMOS0emg2GPnv14riPsMWv/t/Y79DL9HdovX691VOL/AzmzTXu9huLKAAAAAElFTkSuQmCC;" vertex="1" parent="1">
          <mxGeometry x="1300" y="200" width="647" height="517" as="geometry" />
        </mxCell>
      </root>
    </mxGraphModel>
  </diagram>
</mxfile>
